<svg width="246" height="231" fill="none" xmlns="http://www.w3.org/2000/svg"><path d="M-64.996 157.23a1194.045 1194.045 0 0 0 50.775 43.632 1233.869 1233.869 0 0 0-5.245 67.01 1210.691 1210.691 0 0 0 66.582-5.279 1201.201 1201.201 0 0 0 43.353 51.101 1198.088 1198.088 0 0 0 43.353-51.101c22.122 2.37 44.316 4.13 66.581 5.279a1233.063 1233.063 0 0 0-5.245-67.01 1197.977 1197.977 0 0 0 50.775-43.632 1195.125 1195.125 0 0 0-50.775-43.632 1233.037 1233.037 0 0 0 5.245-67.01 1210.736 1210.736 0 0 0-66.581 5.28C119.906 34.414 105.419 17.392 90.504.73a1197.973 1197.973 0 0 0-43.353 51.102 1210.79 1210.79 0 0 0-66.581-5.28 1233.83 1233.83 0 0 0 5.245 67.01 1201.18 1201.18 0 0 0-50.81 43.668Zm126.777 11.959c-.072-.072-.179-.108-.25-.18.178.036.357.036.535.072l-.32.431c0-.108 0-.216.035-.323Zm0-23.953c0-.108-.036-.216-.036-.323l.321.431c-.178.036-.357.036-.535.072.071-.036.143-.108.25-.18Zm16.806-16.914c.071-.072.107-.18.178-.251-.035.179-.035.359-.071.538l-.428-.323c.142 0 .214 0 .32.036Zm23.799 0c.107 0 .214-.036.321-.036l-.428.323c-.035-.179-.035-.359-.071-.538a.63.63 0 0 1 .178.251Zm16.842 16.914c.071.072.178.108.25.18-.179-.036-.357-.036-.535-.072l.321-.431c0 .143-.036.215-.036.323Zm0 23.953c0 .107.036.215.036.323l-.321-.431c.178-.036.356-.036.535-.072a1.107 1.107 0 0 1-.25.18Zm-16.842 16.95c-.071.071-.107.179-.178.251.036-.18.036-.359.071-.539l.428.323c-.107 0-.214-.035-.321-.035Zm-23.8 0c-.106 0-.213.035-.32.035l.428-.323c.035.18.035.359.071.539a1.071 1.071 0 0 0-.178-.251Zm-1.534-23.307a6720.34 6720.34 0 0 1-28.224-3.483c-.892-.718-1.82-1.401-2.711-2.119.892-.718 1.82-1.4 2.711-2.119 9.42-1.185 18.84-2.37 28.224-3.483a5418.15 5418.15 0 0 1-17.52-22.588c-.142-1.149-.285-2.298-.427-3.411 1.142.143 2.283.287 3.39.431a5315.079 5315.079 0 0 1 22.443 17.632 6859.657 6859.657 0 0 1 3.461-28.406c.714-.898 1.392-1.831 2.105-2.729.714.898 1.392 1.831 2.106 2.729 1.177 9.481 2.355 18.961 3.46 28.406 7.458-5.89 14.951-11.779 22.444-17.632 1.142-.144 2.284-.288 3.39-.431-.143 1.149-.285 2.298-.428 3.411a5392.785 5392.785 0 0 1-17.52 22.588c9.42 1.149 18.84 2.298 28.224 3.483.892.719 1.82 1.401 2.712 2.119-.892.718-1.82 1.401-2.712 2.119-9.42 1.185-18.839 2.37-28.224 3.483a5459.024 5459.024 0 0 1 17.52 22.588c.143 1.149.285 2.299.428 3.412-1.142-.144-2.284-.287-3.39-.431a5476.937 5476.937 0 0 1-22.443-17.632c-1.142 9.48-2.284 18.961-3.461 28.405-.714.898-1.392 1.832-2.106 2.729-.713-.897-1.391-1.831-2.105-2.729-1.177-9.48-2.355-18.961-3.46-28.405a5483.897 5483.897 0 0 1-22.445 17.632c-1.141.144-2.283.287-3.39.431.143-1.149.286-2.298.429-3.412a5485.018 5485.018 0 0 1 17.52-22.588ZM25.28 157.23a1331.795 1331.795 0 0 0 22.729 17.704 1286.21 1286.21 0 0 0-3.64 28.693 1258.806 1258.806 0 0 0 28.51-3.663c5.78 7.685 11.632 15.334 17.59 22.876 5.96-7.542 11.811-15.191 17.592-22.876 9.491 1.329 18.982 2.55 28.509 3.663a1286.795 1286.795 0 0 0-3.639-28.693c7.636-5.817 15.236-11.707 22.729-17.704-7.493-5.997-15.093-11.886-22.729-17.704 1.32-9.552 2.533-19.105 3.639-28.693a1258.542 1258.542 0 0 0-28.509 3.663c-5.781-7.685-11.633-15.334-17.591-22.875a1340.092 1340.092 0 0 0-17.591 22.875 1258.806 1258.806 0 0 0-28.51-3.663c1.106 9.588 2.32 19.141 3.64 28.693a1075.347 1075.347 0 0 0-22.73 17.704ZM1.336 194.398a1220.918 1220.918 0 0 1-44.495-37.168 1222.963 1222.963 0 0 1 44.495-37.168 1213.963 1213.963 0 0 1-5.352-57.96 1191.26 1191.26 0 0 1 57.59 5.387 1226.15 1226.15 0 0 1 36.93-44.781 1227.188 1227.188 0 0 1 36.931 44.78 1191.195 1191.195 0 0 1 57.59-5.386 1214.914 1214.914 0 0 1-5.353 57.96 1222.892 1222.892 0 0 1 44.495 37.168 1220.847 1220.847 0 0 1-44.495 37.168 1214.918 1214.918 0 0 1 5.353 57.96 1190.812 1190.812 0 0 1-57.59-5.386 1227.615 1227.615 0 0 1-36.93 44.781 1226.575 1226.575 0 0 1-36.931-44.781 1190.879 1190.879 0 0 1-57.59 5.386 1205.392 1205.392 0 0 1 5.352-57.96Z" fill="url(#a)" fill-opacity=".3"/><path d="M-19.18 157.23c.035 3.124 1.07 6.249 3.104 8.762.178.252.392.539.642.791.25.251.5.466.785.646 5.245 4.237 13.06 4.345 18.02-.646 2.497-2.514 3.817-6.034 3.924-9.553-.107-3.555-1.463-7.074-3.925-9.552-4.96-4.992-12.774-4.884-18.019-.647-.25.18-.535.395-.785.647-.25.251-.464.503-.642.79a14.41 14.41 0 0 0-3.104 8.762Zm32.113-78.07a14.252 14.252 0 0 0-3.96 8.403 3.118 3.118 0 0 0-.072 1.005c0 .36.035.683.071 1.006.714 6.751 6.209 12.353 13.202 12.389 3.497 0 6.922-1.544 9.492-3.95 2.426-2.586 3.925-6.033 3.925-9.552 0-7.039-5.602-12.57-12.31-13.287-.322-.072-.643-.108-1-.072-.357 0-.678.036-.999.072-3.175.359-6.137 1.831-8.35 3.986Zm77.571-32.32c-3.104.036-6.208 1.077-8.706 3.124-.25.18-.535.395-.785.647-.25.25-.464.502-.642.79-4.21 5.278-4.318 13.143.642 18.135 2.498 2.513 5.995 3.842 9.491 3.95 3.533-.108 7.03-1.473 9.492-3.95 4.959-4.992 4.852-12.857.642-18.135a6.25 6.25 0 0 0-.642-.79 4.43 4.43 0 0 0-.785-.647c-2.534-2.01-5.638-3.088-8.707-3.124Zm77.536 32.32a14.086 14.086 0 0 0-8.349-3.986c-.321-.072-.642-.108-.999-.072-.357 0-.678.036-.999.072-6.708.718-12.275 6.248-12.31 13.287 0 3.519 1.534 6.966 3.925 9.552 2.569 2.442 5.994 3.95 9.491 3.95 6.993 0 12.488-5.638 13.202-12.39.071-.322.107-.645.071-1.005 0-.359-.035-.682-.071-1.005-.357-3.196-1.784-6.177-3.961-8.403Zm32.114 78.07c-.036-3.124-1.071-6.248-3.105-8.762a6.186 6.186 0 0 0-.642-.79 4.41 4.41 0 0 0-.785-.647c-5.245-4.237-13.059-4.345-18.019.647-2.498 2.514-3.818 6.033-3.925 9.552.107 3.555 1.463 7.075 3.925 9.553 4.96 4.991 12.774 4.883 18.019.646.25-.18.535-.395.785-.646.25-.252.464-.503.642-.791 2.034-2.549 3.105-5.673 3.105-8.762Zm-32.114 78.035a14.252 14.252 0 0 0 3.961-8.403c.071-.324.107-.647.071-1.006 0-.359-.035-.682-.071-1.005-.714-6.752-6.209-12.354-13.202-12.39-3.497 0-6.922 1.544-9.491 3.95-2.427 2.586-3.925 6.033-3.925 9.553 0 7.038 5.602 12.569 12.31 13.287.321.072.642.108.999.072.357 0 .678-.036.999-.072a14.088 14.088 0 0 0 8.349-3.986Zm-77.536 32.32c3.105-.036 6.209-1.078 8.707-3.125a6.2 6.2 0 0 0 .785-.646c.249-.251.464-.503.642-.79 4.21-5.279 4.317-13.144-.642-18.135-2.498-2.514-5.995-3.843-9.492-3.95-3.532.107-7.029 1.472-9.49 3.95-4.96 4.991-4.854 12.856-.643 18.135.178.251.392.539.642.79s.5.467.785.646a13.779 13.779 0 0 0 8.706 3.125Zm-77.571-32.32a14.09 14.09 0 0 0 8.35 3.986c.32.072.641.108.998.072.357 0 .678-.036 1-.072 6.708-.718 12.274-6.249 12.31-13.287 0-3.52-1.535-6.967-3.925-9.553-2.57-2.442-5.995-3.95-9.492-3.95-6.993 0-12.488 5.638-13.202 12.39-.071.323-.107.646-.071 1.005 0 .359.035.682.071 1.006.357 3.232 1.82 6.176 3.96 8.403ZM-.555 157.23c-.535 3.879-5.316 7.434-9.17 3.843-1.142-1.257-1.57-2.586-1.499-3.843-.07-1.257.357-2.585 1.5-3.842 3.853-3.591 8.67-.036 9.17 3.842Zm26.69-64.783c-3.104 2.37-8.992 1.472-9.17-3.843.071-1.688.713-2.944 1.641-3.77.82-.934 2.07-1.58 3.747-1.652 5.21.215 6.137 6.14 3.782 9.265Zm64.37-26.862c-3.854-.538-7.387-5.35-3.819-9.229 1.25-1.149 2.57-1.58 3.818-1.508 1.25-.072 2.57.36 3.818 1.508 3.569 3.879.036 8.727-3.818 9.23Zm64.369 26.862c-2.355-3.124-1.463-9.05 3.818-9.23 1.677.073 2.926.683 3.746 1.653.928.825 1.57 2.082 1.642 3.77-.214 5.243-6.138 6.177-9.206 3.807Zm26.654 64.783c.535-3.878 5.316-7.433 9.17-3.842 1.142 1.257 1.57 2.585 1.499 3.842.071 1.257-.357 2.586-1.499 3.843-3.818 3.591-8.635.036-9.17-3.843Zm-26.654 64.784c3.104-2.371 8.992-1.473 9.17 3.842-.071 1.688-.678 2.945-1.641 3.771-.821.933-2.07 1.58-3.747 1.652-5.245-.216-6.137-6.177-3.782-9.265Zm-64.37 26.825c3.854.539 7.386 5.351 3.818 9.229-1.249 1.149-2.569 1.58-3.818 1.508-1.248.072-2.569-.359-3.818-1.508-3.568-3.842-.035-8.69 3.818-9.229Zm-64.369-26.825c2.355 3.124 1.463 9.049-3.818 9.229-1.677-.036-2.926-.683-3.747-1.616-.927-.826-1.57-2.083-1.64-3.771.213-5.315 6.1-6.213 9.205-3.842Z" fill="url(#b)" fill-opacity=".3"/><defs><linearGradient id="a" x1="-156.464" y1="-47.323" x2="245.933" y2="186.714" gradientUnits="userSpaceOnUse"><stop offset=".063" stop-color="#fff"/><stop offset="1" stop-color="#fff" stop-opacity="0"/></linearGradient><linearGradient id="b" x1="90.487" y1="46.84" x2="90.487" y2="267.585" gradientUnits="userSpaceOnUse"><stop offset=".063" stop-color="#fff"/><stop offset="1" stop-color="#fff" stop-opacity="0"/></linearGradient></defs></svg>