<svg width="267" height="160" fill="none" xmlns="http://www.w3.org/2000/svg"><path d="M.964 133.73a1018.802 1018.802 0 0 0 43.428 37.08 1042.11 1042.11 0 0 0-4.486 56.948 1042.684 1042.684 0 0 0 56.948-4.486 1023.596 1023.596 0 0 0 37.08 43.428 1020.789 1020.789 0 0 0 37.08-43.428 1042.628 1042.628 0 0 0 56.948 4.486 1041.713 1041.713 0 0 0-4.487-56.948 1022.013 1022.013 0 0 0 43.428-37.08 1019.471 1019.471 0 0 0-43.428-37.08 1041.69 1041.69 0 0 0 4.487-56.948 1042.031 1042.031 0 0 0-56.948 4.487C159.112 29.357 146.721 14.89 133.964.73a1019.987 1019.987 0 0 0-37.08 43.428 1042 1042 0 0 0-56.947-4.486 1042.09 1042.09 0 0 0 4.486 56.948A1024.98 1024.98 0 0 0 .964 133.73Zm108.433 10.163c-.061-.061-.153-.092-.214-.153.153.031.305.031.458.061l-.275.367c0-.092 0-.184.031-.275Zm0-20.356c0-.092-.031-.183-.031-.275l.275.367c-.153.03-.305.03-.458.061.061-.031.122-.092.214-.153Zm14.374-14.374c.061-.061.092-.153.153-.214-.031.153-.031.305-.061.458l-.367-.275c.123 0 .184 0 .275.031Zm20.356 0c.092 0 .183-.031.275-.031l-.367.275c-.03-.153-.03-.305-.061-.458.061.061.123.122.153.214Zm14.405 14.374c.061.061.152.092.213.153-.152-.031-.305-.031-.457-.061l.274-.367c0 .122-.03.183-.03.275Zm0 20.356c0 .091.03.183.03.275l-.274-.367c.152-.03.305-.03.457-.061a.943.943 0 0 1-.213.153Zm-14.405 14.405c-.061.061-.092.152-.153.213.031-.152.031-.305.061-.457l.367.274c-.092 0-.183-.03-.275-.03Zm-20.356 0c-.091 0-.183.03-.275.03l.367-.274c.03.152.03.305.061.457a.943.943 0 0 0-.153-.213Zm-1.312-19.807a5716.218 5716.218 0 0 1-24.14-2.96c-.763-.611-1.557-1.19-2.32-1.801.763-.61 1.557-1.19 2.32-1.8 8.057-1.007 16.113-2.015 24.14-2.961a4626.954 4626.954 0 0 1-14.985-19.196c-.122-.976-.244-1.953-.366-2.899.977.122 1.953.244 2.899.366 6.409 4.975 12.818 9.98 19.196 14.985.977-8.057 1.954-16.114 2.961-24.14.61-.763 1.19-1.557 1.8-2.32.611.763 1.191 1.556 1.801 2.32 1.007 8.056 2.014 16.113 2.96 24.14a4764.19 4764.19 0 0 1 19.196-14.985c.977-.122 1.954-.244 2.9-.366-.122.976-.244 1.953-.367 2.899a4542.92 4542.92 0 0 1-14.984 19.196c8.057.977 16.114 1.954 24.14 2.961.763.61 1.557 1.19 2.319 1.8-.762.611-1.556 1.19-2.319 1.801-8.057 1.007-16.114 2.014-24.14 2.96a4608.085 4608.085 0 0 1 14.984 19.196c.123.977.245 1.954.367 2.9-.977-.122-1.953-.245-2.9-.367a4675.147 4675.147 0 0 1-19.196-14.984 5707.966 5707.966 0 0 1-2.96 24.14c-.61.763-1.19 1.556-1.801 2.319-.61-.763-1.19-1.556-1.8-2.319-1.007-8.057-2.014-16.114-2.961-24.14a4542.92 4542.92 0 0 1-19.196 14.984c-.976.122-1.953.245-2.899.367.122-.977.244-1.954.366-2.9a4694.57 4694.57 0 0 1 14.985-19.196Zm-44.283-4.761a1137.71 1137.71 0 0 0 19.44 15.046 1086.313 1086.313 0 0 0-3.112 24.384 1080.98 1080.98 0 0 0 24.384-3.113c4.944 6.531 9.949 13.032 15.046 19.441 5.096-6.409 10.101-12.91 15.045-19.441 8.118 1.13 16.236 2.167 24.385 3.113a1086.896 1086.896 0 0 0-3.113-24.384c6.531-4.944 13.031-9.949 19.44-15.046-6.409-5.096-12.909-10.101-19.44-15.045a1086.372 1086.372 0 0 0 3.113-24.385 1085.66 1085.66 0 0 0-24.385 3.113c-4.944-6.53-9.949-13.031-15.045-19.44a1137.71 1137.71 0 0 0-15.046 19.44A1086.183 1086.183 0 0 0 94.504 94.3a1085.79 1085.79 0 0 0 3.113 24.385 917.9 917.9 0 0 0-19.44 15.045Zm-20.478 31.587a1043.8 1043.8 0 0 1-38.056-31.587 1043.8 1043.8 0 0 1 38.056-31.587 1025.198 1025.198 0 0 1-4.577-49.257c16.45 1.13 32.868 2.656 49.257 4.578a1042.746 1042.746 0 0 1 31.586-38.056 1043.8 1043.8 0 0 1 31.587 38.056 1025.397 1025.397 0 0 1 49.257-4.578 1024.558 1024.558 0 0 1-4.578 49.257 1044.066 1044.066 0 0 1 38.057 31.587 1044.066 1044.066 0 0 1-38.057 31.587 1024.519 1024.519 0 0 1 4.578 49.257 1024.757 1024.757 0 0 1-49.257-4.578 1044.066 1044.066 0 0 1-31.587 38.057 1043.012 1043.012 0 0 1-31.586-38.057 1024.702 1024.702 0 0 1-49.257 4.578c1.129-16.48 2.655-32.899 4.577-49.257Z" fill="url(#a)" fill-opacity=".3"/><path d="M40.15 133.73c.03 2.655.916 5.31 2.656 7.447.152.213.335.457.549.671.214.214.427.397.671.549 4.486 3.602 11.17 3.693 15.412-.549 2.136-2.136 3.266-5.127 3.357-8.118-.091-3.021-1.251-6.012-3.357-8.118-4.242-4.242-10.925-4.15-15.412-.549a5.32 5.32 0 0 0-.671.549 3.768 3.768 0 0 0-.55.672 12.196 12.196 0 0 0-2.655 7.446Zm27.467-66.347a12.08 12.08 0 0 0-3.388 7.141c-.06.275-.091.55-.06.855 0 .305.03.58.06.854.61 5.738 5.31 10.499 11.292 10.53 2.991 0 5.921-1.313 8.118-3.358 2.076-2.197 3.357-5.127 3.357-8.118 0-5.982-4.791-10.681-10.528-11.292a2.634 2.634 0 0 0-.855-.06c-.305 0-.58.03-.855.06-2.716.305-5.249 1.557-7.14 3.388Zm66.348-27.467c-2.656.03-5.311.916-7.447 2.655a5.243 5.243 0 0 0-.671.55 3.787 3.787 0 0 0-.55.67c-3.601 4.487-3.693 11.17.55 15.413 2.136 2.136 5.127 3.265 8.118 3.357 3.021-.092 6.012-1.251 8.117-3.357 4.243-4.242 4.151-10.926.55-15.412a5.324 5.324 0 0 0-.55-.672 3.762 3.762 0 0 0-.671-.549c-2.167-1.709-4.822-2.624-7.446-2.655Zm66.316 27.467a12.078 12.078 0 0 0-7.141-3.388 2.632 2.632 0 0 0-.854-.06c-.306 0-.58.03-.855.06-5.737.61-10.498 5.31-10.529 11.292 0 2.99 1.312 5.92 3.357 8.118 2.197 2.075 5.127 3.357 8.118 3.357 5.982 0 10.682-4.791 11.292-10.529.061-.275.092-.55.061-.854 0-.306-.031-.58-.061-.855a12.163 12.163 0 0 0-3.388-7.141Zm27.467 66.347c-.03-2.655-.915-5.31-2.655-7.446a5.405 5.405 0 0 0-.549-.672 3.802 3.802 0 0 0-.672-.549c-4.486-3.601-11.17-3.693-15.412.549-2.136 2.137-3.265 5.127-3.357 8.118.092 3.022 1.252 6.012 3.357 8.118 4.242 4.242 10.926 4.151 15.412.549a5.23 5.23 0 0 0 .672-.549 3.84 3.84 0 0 0 .549-.671c1.74-2.167 2.655-4.822 2.655-7.447Zm-27.467 66.317a12.078 12.078 0 0 0 3.388-7.141c.061-.275.092-.55.061-.855 0-.305-.031-.58-.061-.854-.61-5.738-5.31-10.499-11.292-10.529-2.991 0-5.921 1.312-8.118 3.357-2.075 2.197-3.357 5.127-3.357 8.118 0 5.981 4.792 10.681 10.529 11.292.275.061.549.091.855.061.305 0 .579-.031.854-.061a12.081 12.081 0 0 0 7.141-3.388Zm-66.316 27.467c2.655-.031 5.31-.916 7.446-2.655.214-.153.458-.336.671-.55.214-.213.397-.427.55-.671 3.601-4.486 3.693-11.17-.55-15.412-2.136-2.136-5.127-3.265-8.117-3.357-3.022.092-6.013 1.251-8.118 3.357-4.243 4.242-4.151 10.926-.55 15.412.153.214.336.458.55.671.213.214.427.397.671.55a11.834 11.834 0 0 0 7.447 2.655Zm-66.348-27.467a12.083 12.083 0 0 0 7.141 3.388c.275.061.55.091.855.061.305 0 .58-.031.855-.061 5.737-.611 10.498-5.311 10.528-11.292 0-2.991-1.312-5.921-3.357-8.118-2.197-2.075-5.127-3.357-8.118-3.357-5.981 0-10.681 4.791-11.291 10.529a2.63 2.63 0 0 0-.062.854c0 .305.031.58.061.855.306 2.746 1.557 5.249 3.388 7.141ZM56.081 133.73c-.458 3.296-4.547 6.318-7.843 3.266-.977-1.068-1.343-2.198-1.282-3.266-.061-1.068.305-2.197 1.282-3.265 3.296-3.052 7.416-.031 7.843 3.265ZM78.91 78.675c-2.655 2.014-7.69 1.25-7.843-3.266.06-1.434.61-2.502 1.404-3.204.701-.794 1.77-1.343 3.204-1.404 4.456.183 5.25 5.218 3.235 7.874Zm55.056-22.828c-3.296-.458-6.318-4.547-3.266-7.843 1.068-.977 2.197-1.343 3.266-1.282 1.068-.061 2.197.305 3.265 1.282 3.052 3.296.031 7.416-3.265 7.843Zm55.055 22.828c-2.014-2.656-1.251-7.691 3.266-7.844 1.434.061 2.502.58 3.204 1.404.793.702 1.343 1.77 1.404 3.205-.183 4.455-5.249 5.249-7.874 3.235Zm22.797 55.055c.458-3.296 4.548-6.317 7.844-3.265.976 1.068 1.343 2.197 1.281 3.265.062 1.068-.305 2.198-1.281 3.266-3.266 3.052-7.386.03-7.844-3.266Zm-22.797 55.056c2.655-2.015 7.691-1.252 7.843 3.265-.061 1.435-.58 2.503-1.404 3.205-.701.793-1.77 1.342-3.204 1.403-4.486-.183-5.249-5.249-3.235-7.873Zm-55.055 22.797c3.296.458 6.317 4.547 3.265 7.843-1.068.977-2.197 1.343-3.265 1.282-1.069.061-2.198-.305-3.266-1.282-3.052-3.265-.03-7.385 3.266-7.843Zm-55.056-22.797c2.014 2.655 1.251 7.69-3.266 7.843-1.434-.031-2.502-.58-3.204-1.373-.793-.702-1.343-1.77-1.404-3.205.183-4.517 5.219-5.28 7.874-3.265Z" fill="url(#b)" fill-opacity=".3"/><defs><linearGradient id="a" x1="133.934" y1=".73" x2="133.934" y2="266.7" gradientUnits="userSpaceOnUse"><stop offset=".063" stop-color="#fff"/><stop offset="1" stop-color="#fff" stop-opacity="0"/></linearGradient><linearGradient id="b" x1="133.949" y1="39.916" x2="133.949" y2="227.514" gradientUnits="userSpaceOnUse"><stop offset=".063" stop-color="#fff"/><stop offset="1" stop-color="#fff" stop-opacity="0"/></linearGradient></defs></svg>