<svg width="79" height="125" fill="none" xmlns="http://www.w3.org/2000/svg"><path d="M.093 62.836c1.465 7.967 2.746 15.962 4.211 23.929 4.595 6.672 9.347 13.23 13.942 19.903 6.673 4.595 13.231 9.347 19.904 13.942 7.966 1.466 15.962 2.746 23.929 4.211 7.967-1.465 15.962-2.745 23.93-4.211 6.671-4.595 13.23-9.347 19.902-13.942 4.596-6.672 9.347-13.23 13.942-19.903 1.466-7.967 2.746-15.962 4.212-23.93-1.466-7.966-2.746-15.962-4.212-23.929-4.595-6.672-9.346-13.23-13.942-19.903-6.672-4.595-13.23-9.347-19.903-13.942-7.953-1.48-15.948-2.76-23.915-4.225-7.967 1.465-15.962 2.745-23.93 4.21-6.672 4.596-13.23 9.348-19.902 13.943-4.596 6.672-9.347 13.23-13.943 19.903C2.838 46.86 1.558 54.87.093 62.836Zm10.058 21.51c-1.309-7.156-2.475-14.354-3.77-21.51 1.295-7.17 2.461-14.355 3.77-21.511 4.14-5.99 8.394-11.894 12.548-17.883 5.99-4.14 11.894-8.408 17.883-12.548 7.156-1.309 14.355-2.475 21.511-3.77 7.17 1.295 14.355 2.461 21.51 3.77 5.99 4.14 11.894 8.394 17.884 12.548 4.14 5.99 8.408 11.894 12.548 17.883 1.309 7.156 2.475 14.355 3.77 21.51-1.309 7.157-2.476 14.355-3.784 21.512-4.14 5.989-8.394 11.893-12.548 17.882-5.99 4.14-11.894 8.408-17.883 12.548-7.157 1.309-14.355 2.476-21.511 3.77-7.17-1.294-14.355-2.461-21.511-3.77-5.99-4.14-11.893-8.393-17.883-12.548-4.126-5.989-8.394-11.893-12.534-17.882Z" fill="#fff" fill-opacity=".05"/><path d="M55.165 62.836c.128.896.256 1.806.398 2.703.54.725 1.081 1.465 1.636 2.19.726.541 1.451 1.096 2.19 1.637.897.128 1.808.27 2.704.398.896-.128 1.807-.256 2.703-.398.726-.54 1.465-1.082 2.19-1.636.542-.726 1.096-1.452 1.637-2.191.128-.897.27-1.807.398-2.703-.128-.897-.256-1.807-.398-2.703-.54-.726-1.081-1.466-1.636-2.191-.726-.541-1.451-1.096-2.191-1.636-.896-.128-1.807-.27-2.703-.399-.896.128-1.807.256-2.703.399-.726.54-1.465 1.08-2.191 1.636-.54.725-1.096 1.45-1.636 2.19-.128.897-.27 1.793-.398 2.704Zm5.761.483c-.028-.156-.042-.327-.07-.483.028-.157.042-.328.07-.484.1-.128.2-.256.3-.398.127-.1.255-.2.398-.285.156-.028.327-.043.483-.071.157.028.327.043.484.071.128.1.256.2.398.285.1.128.2.256.285.398.028.156.042.327.07.484-.028.156-.042.327-.07.483-.1.128-.2.256-.285.399-.128.1-.256.199-.398.298-.157.029-.327.043-.484.072-.156-.029-.327-.043-.483-.072-.129-.1-.257-.199-.399-.298-.114-.143-.199-.27-.299-.399Z" fill="#fff" fill-opacity=".05"/><path d="M15.316 62.836c1.08 6.018 2.077 12.05 3.158 18.068 3.5 5.022 7.056 9.987 10.542 15.009 5.022 3.485 9.987 7.056 15.01 10.542 6.017 1.081 12.05 2.063 18.067 3.158 6.018-1.081 12.05-2.077 18.068-3.158 5.022-3.5 9.987-7.057 15.01-10.542 3.485-5.022 7.056-9.987 10.541-15.01 1.081-6.017 2.063-12.05 3.158-18.067-1.081-6.018-2.077-12.05-3.158-18.068-3.5-5.022-7.056-9.987-10.542-15.01-5.022-3.485-9.987-7.056-15.01-10.541-6.017-1.082-12.05-2.063-18.067-3.159-6.018 1.082-12.05 2.077-18.068 3.159-5.022 3.5-9.987 7.056-15.01 10.542-3.485 5.022-7.056 9.987-10.541 15.009-1.081 6.018-2.063 12.05-3.158 18.068ZM48.05 68.64c-.299-1.935-.583-3.87-.853-5.819.27-1.934.554-3.883.853-5.818a369.064 369.064 0 0 1 3.5-4.724c1.565-1.18 3.13-2.347 4.723-3.5 1.935-.298 3.87-.583 5.819-.853 1.935.27 3.884.555 5.819.854a367.409 367.409 0 0 1 4.723 3.5c1.18 1.564 2.347 3.13 3.5 4.723.298 1.934.583 3.87.853 5.818-.27 1.935-.555 3.884-.853 5.82a368.352 368.352 0 0 1-3.5 4.722 289.976 289.976 0 0 1-4.723 3.5c-1.935.299-3.87.584-5.819.854-1.935-.27-3.884-.555-5.819-.854a367.661 367.661 0 0 1-4.723-3.5c-1.167-1.564-2.333-3.144-3.5-4.723Zm-14.426-4.624c-.028-.199-.014-.185.015.057.042.3.042.27-.015-.085v.028Zm9.177 19.776c-.157-.114-.143-.114.056.042.242.185.214.171-.07-.057l.014.015Zm20.472 7.497c-.2.028-.185.014.057-.014.298-.043.27-.043-.086.014h.029Zm19.775-9.162c-.114.157-.114.142.043-.057.185-.242.17-.213-.057.071l.014-.014Zm7.497-20.472c.029.199.029.185-.014-.057-.042-.299-.042-.27.014.085v-.028ZM81.384 41.88c.157.113.143.113-.056-.043-.242-.185-.214-.17.07.057 0-.014-.014-.014-.014-.014Zm-20.472-7.512c.2-.028.185-.014-.071.014-.299.043-.27.043.085-.014h-.014Zm-19.775 9.176c.114-.156.114-.142-.043.057-.185.242-.17.214.057-.071-.014 0-.014.014-.014.014Zm-7.512 18.14c.043-.356.057-.399.015-.086-.029.242-.029.256-.015.057v.028Zm7.526 20.457c-.227-.284-.242-.313-.057-.07.157.198.157.213.043.056 0 0 0 .014.014.014Zm19.79 9.148c-.356-.043-.399-.057-.086-.014.242.028.256.028.071.014h.015Zm20.458-7.512c-.285.228-.313.242-.072.057.2-.156.214-.156.057-.042l.015-.015Zm9.147-19.789c-.042.356-.056.398-.014.085.029-.241.029-.256.014-.056v-.029ZM83.035 43.53c.227.285.242.313.057.071-.157-.199-.157-.213-.043-.057l-.014-.014Zm-19.79-9.162c.356.043.399.057.086.014-.242-.028-.256-.028-.057-.014h-.029Zm-20.458 7.526c.285-.228.313-.242.072-.057-.2.156-.214.156-.057.043 0 0-.015 0-.015.014Zm-9.02 20.942a2.62 2.62 0 0 0-.142.597c-.042.214-.028.427.015.64 0 .171.042.328.113.484.171.37.285.654.584.94.668.653 1.536.71 2.418.64 2.205-.214 4.282-1.01 6.345-1.75.242 1.735.498 3.47.754 5.206-5.306.811-13.316 1.48-14.084-5.079a6.512 6.512 0 0 1 0-1.664 6.512 6.512 0 0 1 0-1.665c.768-6.558 8.778-5.89 14.084-5.079-.27 1.736-.512 3.472-.754 5.207-2.077-.74-4.14-1.536-6.345-1.75-.882-.085-1.75-.014-2.418.64-.3.285-.413.57-.584.94a1.15 1.15 0 0 0-.113.483 1.617 1.617 0 0 0-.015.64c.029.186.072.385.143.57Zm8.295-20.032a2.298 2.298 0 0 0-.527.328 1.35 1.35 0 0 0-.44.455c-.114.128-.214.256-.257.412-.128.385-.256.655-.256 1.082.014.924.584 1.593 1.266 2.162 1.708 1.409 3.742 2.305 5.72 3.258a463.239 463.239 0 0 0-3.145 4.211c-4.325-3.172-10.456-8.365-6.373-13.558.37-.47.768-.853 1.18-1.166.314-.413.698-.811 1.167-1.181 5.179-4.098 10.372 2.048 13.558 6.373-1.408 1.039-2.817 2.077-4.21 3.144-.94-1.991-1.836-4.011-3.259-5.719-.569-.683-1.237-1.252-2.162-1.266-.413 0-.697.114-1.081.256a1.122 1.122 0 0 0-.413.256 1.494 1.494 0 0 0-.455.441 2.347 2.347 0 0 0-.313.512Zm20.031-8.294a2.626 2.626 0 0 0-.598-.142 1.617 1.617 0 0 0-.64.014c-.17 0-.327.043-.483.114-.37.17-.655.285-.94.583-.654.669-.71 1.537-.64 2.419.214 2.205 1.01 4.282 1.75 6.345-1.735.242-3.471.498-5.207.754-.81-5.306-1.48-13.316 5.08-14.084a6.512 6.512 0 0 1 1.664 0 6.512 6.512 0 0 1 1.664 0c6.559.768 5.89 8.777 5.08 14.084-1.736-.27-3.472-.512-5.208-.754.74-2.077 1.537-4.14 1.75-6.345.086-.882.014-1.75-.64-2.419-.285-.298-.57-.412-.939-.583a1.148 1.148 0 0 0-.484-.114 1.617 1.617 0 0 0-.64-.014 2.781 2.781 0 0 0-.569.142Zm20.031 8.294a2.305 2.305 0 0 0-.327-.526 1.35 1.35 0 0 0-.455-.441c-.128-.114-.256-.213-.413-.256-.384-.128-.654-.256-1.081-.256-.925.014-1.594.583-2.162 1.266-1.409 1.707-2.305 3.742-3.259 5.72a460 460 0 0 0-4.21-3.145c3.172-4.325 8.365-10.456 13.558-6.373.469.37.853.768 1.166 1.18.413.313.811.697 1.18 1.167 4.098 5.178-2.048 10.371-6.373 13.558a460 460 0 0 0-3.144-4.211c1.992-.94 4.012-1.835 5.72-3.258.682-.57 1.251-1.224 1.266-2.163 0-.412-.114-.697-.257-1.08a1.122 1.122 0 0 0-.256-.413 1.68 1.68 0 0 0-.44-.456 2.745 2.745 0 0 0-.513-.313Zm8.294 20.032c.072-.185.114-.384.143-.598a1.617 1.617 0 0 0-.015-.64c0-.17-.042-.327-.113-.484-.171-.37-.285-.654-.584-.939-.668-.654-1.536-.711-2.418-.64-2.205.214-4.282 1.01-6.345 1.75a651.326 651.326 0 0 0-.754-5.207c5.306-.81 13.316-1.48 14.084 5.079a6.512 6.512 0 0 1 0 1.664 6.512 6.512 0 0 1 0 1.665c-.768 6.558-8.778 5.89-14.084 5.079.27-1.736.512-3.471.754-5.207 2.077.74 4.14 1.536 6.345 1.75.882.085 1.75.014 2.418-.64.3-.285.413-.57.584-.94.07-.156.113-.312.113-.483.043-.214.057-.427.015-.64a2.775 2.775 0 0 0-.143-.57Zm-8.294 20.03c.185-.085.356-.184.527-.326.184-.114.327-.27.44-.456.114-.128.214-.256.257-.412.128-.384.256-.655.256-1.081-.014-.925-.584-1.594-1.266-2.163-1.708-1.408-3.742-2.305-5.72-3.258a463.712 463.712 0 0 0 3.145-4.21c4.325 3.172 10.456 8.364 6.373 13.557a6.52 6.52 0 0 1-1.18 1.167 6.52 6.52 0 0 1-1.167 1.18c-5.179 4.098-10.372-2.048-13.558-6.373a293.831 293.831 0 0 0 4.21-3.144c.94 1.992 1.836 4.012 3.259 5.719.569.683 1.237 1.252 2.162 1.266.413 0 .697-.114 1.081-.256.157-.057.3-.142.413-.256.185-.114.327-.27.455-.441.114-.17.228-.327.313-.512Zm-20.031 8.295c.185.071.384.114.597.142.214.043.427.029.64-.014.171 0 .328-.043.484-.114.37-.17.655-.284.94-.583.654-.669.71-1.537.64-2.419-.214-2.205-1.01-4.282-1.75-6.345 1.735-.242 3.471-.498 5.207-.754.81 5.307 1.48 13.317-5.08 14.085a6.503 6.503 0 0 1-1.664 0 6.503 6.503 0 0 1-1.664 0c-6.559-.769-5.89-8.778-5.08-14.085 1.736.27 3.472.513 5.208.754-.74 2.077-1.537 4.14-1.75 6.345-.085.882-.014 1.75.64 2.419.285.299.57.412.939.583.157.071.313.114.484.114.213.043.426.057.64.014.185-.028.384-.07.569-.142Zm-20.031-8.294c.085.185.185.355.327.526.114.185.27.328.455.441.128.114.256.214.413.256.384.128.654.257 1.081.257.925-.015 1.593-.584 2.163-1.267 1.408-1.707 2.304-3.741 3.257-5.719a462.766 462.766 0 0 0 4.211 3.144c-3.172 4.325-8.365 10.457-13.558 6.374a6.516 6.516 0 0 1-1.166-1.181 6.516 6.516 0 0 1-1.18-1.167c-4.098-5.178 2.048-10.37 6.373-13.558a460 460 0 0 0 3.144 4.211c-1.992.94-4.012 1.836-5.72 3.258-.682.57-1.251 1.238-1.266 2.163 0 .412.114.697.257 1.081.056.156.142.299.256.413.113.185.27.327.44.455.157.114.328.227.513.313ZM24.52 62.836c-.1.853-.07 1.778.086 2.788 1.01 6.118 6.288 7.754 11.865 7.825-3.898 3.998-6.473 8.877-2.86 13.928a10.54 10.54 0 0 0 1.907 2.034c.526.669 1.209 1.309 2.034 1.906 5.05 3.614 9.93 1.04 13.928-2.859.071 5.577 1.707 10.855 7.825 11.865a9.78 9.78 0 0 0 2.788.085c.854.1 1.778.072 2.788-.085 6.118-1.01 7.754-6.288 7.825-11.865 3.998 3.898 8.878 6.473 13.928 2.86a10.539 10.539 0 0 0 2.034-1.907c.67-.526 1.31-1.21 1.907-2.034 3.613-5.05 1.038-9.93-2.86-13.928 5.577-.071 10.855-1.707 11.865-7.825.171-1.01.185-1.935.086-2.788.1-.854.07-1.779-.086-2.789-1.01-6.117-6.288-7.753-11.865-7.825 3.898-3.997 6.473-8.877 2.86-13.927a10.542 10.542 0 0 0-1.907-2.035c-.526-.668-1.209-1.309-2.034-1.906-5.05-3.614-9.93-1.039-13.928 2.86-.071-5.577-1.707-10.856-7.825-11.866a9.81 9.81 0 0 0-2.788-.085c-.854-.1-1.778-.071-2.788.085-6.118 1.01-7.754 6.289-7.825 11.865-3.998-3.898-8.878-6.473-13.928-2.86a10.539 10.539 0 0 0-2.035 1.907c-.668.527-1.308 1.21-1.906 2.035-3.613 5.05-1.038 9.93 2.86 13.927-5.577.072-10.855 1.708-11.865 7.825-.157 1.01-.185 1.935-.086 2.789ZM22.13 79.38c-.982-5.505-1.892-11.04-2.874-16.545.982-5.52 1.892-11.04 2.874-16.546 3.201-4.595 6.46-9.148 9.66-13.743 4.595-3.201 9.148-6.459 13.743-9.66 5.506-.982 11.04-1.892 16.546-2.874 5.52.982 11.04 1.892 16.545 2.874 4.596 3.201 9.148 6.459 13.743 9.66 3.201 4.595 6.46 9.148 9.66 13.743.982 5.506 1.893 11.04 2.874 16.546-.981 5.505-1.892 11.04-2.874 16.545-3.2 4.596-6.459 9.148-9.66 13.743-4.595 3.201-9.147 6.46-13.743 9.66-5.505.982-11.04 1.892-16.545 2.874-5.52-.982-11.04-1.892-16.546-2.874-4.595-3.2-9.148-6.459-13.743-9.66-3.187-4.595-6.459-9.147-9.66-13.743Z" fill="#fff" fill-opacity=".05"/></svg>