<svg width="176" height="88" fill="none" xmlns="http://www.w3.org/2000/svg"><g clip-path="url(#a)" fill-opacity=".3"><path d="M.87.423a670.977 670.977 0 0 0 28.572 24.395 685.62 685.62 0 0 0-2.952 37.465 685.517 685.517 0 0 0 37.466-2.951A673.115 673.115 0 0 0 88.35 87.903a670.6 670.6 0 0 0 24.395-28.571 685.559 685.559 0 0 0 37.466 2.951 685.223 685.223 0 0 0-2.952-37.465A672.922 672.922 0 0 0 175.83.423a670.728 670.728 0 0 0-28.571-24.395 685.223 685.223 0 0 0 2.952-37.465 685.559 685.559 0 0 0-37.466 2.951c-7.83-9.758-15.982-19.275-24.374-28.59a670.97 670.97 0 0 0-24.395 28.57 685.62 685.62 0 0 0-37.466-2.951 685.513 685.513 0 0 0 2.952 37.465A674.134 674.134 0 0 0 .87.423ZM72.209 7.11c-.04-.04-.1-.06-.14-.1.1.02.2.02.3.04l-.18.24c0-.06 0-.12.02-.18Zm0-13.392c0-.06-.02-.12-.02-.18l.18.24c-.1.02-.2.02-.3.04.04-.02.08-.06.14-.1Zm9.457-9.457c.04-.04.06-.1.1-.14-.02.1-.02.2-.04.3l-.241-.18c.08 0 .12 0 .18.02Zm13.392 0c.06 0 .12-.02.18-.02l-.24.18c-.02-.1-.02-.2-.04-.3.04.04.08.08.1.14Zm9.476 9.457c.041.04.101.06.141.1-.1-.02-.201-.02-.301-.04l.18-.24c0 .08-.02.12-.02.18Zm0 13.392c0 .06.02.12.02.18l-.18-.24c.1-.02.201-.02.301-.04-.04.04-.1.08-.141.1Zm-9.476 9.477c-.04.04-.06.1-.1.14.02-.1.02-.2.04-.3l.24.18c-.06 0-.12-.02-.18-.02Zm-13.392 0c-.06 0-.12.02-.181.02l.24-.18c.02.1.02.2.04.3a.608.608 0 0 0-.1-.14ZM80.8 3.556C75.501 2.912 70.2 2.27 64.92 1.607c-.501-.402-1.023-.783-1.525-1.185.502-.401 1.024-.783 1.526-1.185 5.3-.662 10.6-1.325 15.881-1.947a3032.73 3032.73 0 0 1-9.858-12.63c-.08-.642-.16-1.284-.241-1.907.642.08 1.285.161 1.907.241a3041.02 3041.02 0 0 1 12.63 9.859c.642-5.3 1.284-10.601 1.947-15.882.402-.502.783-1.024 1.185-1.526.401.502.783 1.024 1.184 1.526.663 5.3 1.325 10.601 1.948 15.882 4.196-3.293 8.412-6.586 12.629-9.859.642-.08 1.285-.16 1.907-.24-.08.642-.16 1.284-.241 1.907A2974.489 2974.489 0 0 1 95.94-2.71c5.301.642 10.601 1.285 15.882 1.947.502.402 1.024.784 1.526 1.185-.502.402-1.024.783-1.526 1.185-5.301.662-10.601 1.325-15.882 1.947 3.293 4.197 6.586 8.413 9.858 12.63.081.642.161 1.284.241 1.907-.642-.08-1.285-.16-1.907-.241a3026.997 3026.997 0 0 1-12.63-9.858c-.642 5.3-1.284 10.6-1.947 15.881-.401.502-.783 1.024-1.184 1.526-.402-.502-.783-1.024-1.185-1.526-.663-5.3-1.325-10.601-1.948-15.881A3040.17 3040.17 0 0 1 72.61 17.85c-.642.08-1.285.16-1.907.24.08-.642.16-1.284.24-1.907a3039.33 3039.33 0 0 1 9.86-12.629ZM51.668.422a749.921 749.921 0 0 0 12.79 9.899 714.199 714.199 0 0 0-2.048 16.042 714.208 714.208 0 0 0 16.042-2.048 677.941 677.941 0 0 0 9.898 12.79 678.363 678.363 0 0 0 9.899-12.79 714.247 714.247 0 0 0 16.042 2.048 711.31 711.31 0 0 0-2.048-16.042 676.256 676.256 0 0 0 12.79-9.899 676.063 676.063 0 0 0-12.79-9.898 711.342 711.342 0 0 0 2.048-16.043 714.247 714.247 0 0 0-16.042 2.048 678.363 678.363 0 0 0-9.898-12.79 749.645 749.645 0 0 0-9.899 12.79 714.208 714.208 0 0 0-16.042-2.048 714.232 714.232 0 0 0 2.048 16.043A603.687 603.687 0 0 0 51.668.423Zm-13.472 20.78A686.455 686.455 0 0 1 13.158.424a686.555 686.555 0 0 1 25.038-20.78 674.555 674.555 0 0 1-3.012-32.407 674.57 674.57 0 0 1 32.406 3.012 686.54 686.54 0 0 1 20.78-25.037 686.43 686.43 0 0 1 20.781 25.037 674.595 674.595 0 0 1 32.406-3.012 675.837 675.837 0 0 1-3.011 32.406A686.719 686.719 0 0 1 163.583.423a686.62 686.62 0 0 1-25.037 20.78 675.853 675.853 0 0 1 3.011 32.407 674.595 674.595 0 0 1-32.406-3.012 686.341 686.341 0 0 1-20.78 25.037A686.452 686.452 0 0 1 67.59 50.598a674.57 674.57 0 0 1-32.406 3.012 669.824 669.824 0 0 1 3.012-32.406Z" fill="url(#b)"/><path d="M26.65.423c.021 1.747.603 3.494 1.748 4.9.1.14.22.3.361.44.14.141.281.262.442.362 2.951 2.37 7.348 2.43 10.14-.361 1.405-1.406 2.148-3.373 2.208-5.34-.06-1.989-.823-3.956-2.209-5.342-2.79-2.79-7.188-2.73-10.14-.361-.14.1-.3.22-.44.361-.142.14-.262.281-.362.442a8.025 8.025 0 0 0-1.747 4.9Zm18.071-43.65a7.948 7.948 0 0 0-2.229 4.699c-.04.18-.06.361-.04.562 0 .2.02.381.04.562.402 3.775 3.494 6.907 7.43 6.927 1.967 0 3.895-.863 5.34-2.209 1.365-1.445 2.209-3.373 2.209-5.34 0-3.936-3.153-7.028-6.927-7.43-.181-.04-.362-.06-.563-.04-.2 0-.38.02-.562.04a8.124 8.124 0 0 0-4.698 2.23Zm43.65-18.07c-1.747.02-3.494.603-4.9 1.747-.14.1-.3.22-.441.361-.14.141-.261.282-.361.442-2.37 2.952-2.43 7.349.361 10.14 1.405 1.405 3.373 2.148 5.34 2.208 1.988-.06 3.956-.823 5.341-2.208 2.791-2.791 2.731-7.188.362-10.14a3.5 3.5 0 0 0-.361-.442 2.492 2.492 0 0 0-.442-.361 8.115 8.115 0 0 0-4.9-1.747ZM132-43.227a7.947 7.947 0 0 0-4.698-2.228c-.181-.04-.361-.06-.562-.04-.201 0-.382.02-.562.04-3.775.401-6.907 3.493-6.927 7.429 0 1.967.863 3.895 2.208 5.34 1.446 1.366 3.373 2.209 5.341 2.209 3.935 0 7.027-3.152 7.429-6.927.04-.18.06-.361.04-.562 0-.2-.02-.382-.04-.562A8.004 8.004 0 0 0 132-43.227ZM150.07.423c-.02-1.747-.602-3.494-1.746-4.899a3.515 3.515 0 0 0-.362-.442 2.485 2.485 0 0 0-.441-.361c-2.952-2.37-7.349-2.43-10.14.361-1.405 1.406-2.148 3.373-2.208 5.341.06 1.988.823 3.955 2.208 5.34 2.791 2.792 7.188 2.731 10.14.362.14-.1.301-.22.441-.361.141-.14.261-.281.362-.442A7.869 7.869 0 0 0 150.07.423ZM132 44.053a7.948 7.948 0 0 0 2.229-4.699c.04-.18.06-.361.04-.562 0-.2-.02-.381-.04-.562-.402-3.775-3.494-6.907-7.429-6.927-1.968 0-3.895.863-5.341 2.209-1.365 1.445-2.208 3.373-2.208 5.34 0 3.936 3.152 7.028 6.927 7.43.18.04.361.06.562.04.201 0 .381-.02.562-.04a7.947 7.947 0 0 0 4.698-2.23Zm-43.63 18.07c1.748-.02 3.494-.602 4.9-1.747.14-.1.3-.22.442-.361.14-.14.26-.282.36-.442 2.37-2.952 2.43-7.349-.36-10.14-1.406-1.405-3.374-2.148-5.341-2.208-1.988.06-3.956.823-5.341 2.209-2.79 2.79-2.73 7.187-.361 10.139.1.14.22.301.361.442.14.14.281.26.442.361a7.783 7.783 0 0 0 4.899 1.747Zm-43.649-18.07a7.947 7.947 0 0 0 4.698 2.228c.181.04.362.06.563.04.2 0 .381-.02.562-.04 3.774-.401 6.907-3.493 6.927-7.429 0-1.967-.864-3.895-2.209-5.34-1.446-1.366-3.373-2.209-5.34-2.209-3.936 0-7.028 3.152-7.43 6.927-.04.18-.06.361-.04.562 0 .2.02.382.04.562a8.066 8.066 0 0 0 2.23 4.699ZM37.131.423c-.3 2.168-2.991 4.156-5.16 2.148-.642-.702-.883-1.445-.843-2.148-.04-.703.201-1.446.844-2.148 2.168-2.008 4.878-.02 5.16 2.148Zm15.019-36.22c-1.747 1.325-5.06.822-5.16-2.149.04-.944.401-1.646.923-2.108.462-.522 1.165-.884 2.109-.924 2.931.12 3.453 3.434 2.128 5.18Zm36.22-15.019c-2.168-.301-4.155-2.992-2.148-5.16.703-.643 1.446-.883 2.149-.843.703-.04 1.445.2 2.148.843 2.008 2.168.02 4.879-2.148 5.16Zm36.221 15.018c-1.325-1.746-.823-5.06 2.149-5.16.943.04 1.646.382 2.108.924.522.462.883 1.164.924 2.108-.121 2.931-3.454 3.454-5.181 2.128ZM139.59.423c.301-2.168 2.991-4.156 5.16-2.148.642.702.883 1.445.843 2.148.04.703-.201 1.446-.843 2.148-2.149 2.008-4.859.02-5.16-2.148Zm-14.999 36.22c1.747-1.324 5.06-.822 5.161 2.15-.041.943-.382 1.646-.924 2.107-.462.522-1.165.884-2.108.924-2.952-.12-3.454-3.453-2.129-5.18Zm-36.22 15c2.168.3 4.156 2.99 2.148 5.16-.703.642-1.446.883-2.148.842-.703.04-1.446-.2-2.149-.843-2.007-2.148-.02-4.859 2.149-5.16Zm-36.221-15c1.325 1.748.823 5.06-2.148 5.16-.944-.02-1.647-.38-2.109-.903-.522-.461-.883-1.164-.923-2.108.12-2.971 3.433-3.473 5.18-2.148Z" fill="url(#c)"/></g><defs><linearGradient id="b" x1="118.604" y1="-67.913" x2="88.35" y2="87.903" gradientUnits="userSpaceOnUse"><stop offset=".063" stop-color="#fff"/><stop offset="1" stop-color="#fff" stop-opacity="0"/></linearGradient><linearGradient id="c" x1="88.361" y1="-61.297" x2="88.361" y2="62.123" gradientUnits="userSpaceOnUse"><stop offset=".063" stop-color="#fff"/><stop offset="1" stop-color="#fff" stop-opacity="0"/></linearGradient><clipPath id="a"><path fill="#fff" transform="translate(.87 -87.077)" d="M0 0h175v175H0z"/></clipPath></defs></svg>