<svg width="303" height="322" fill="none" xmlns="http://www.w3.org/2000/svg"><g clip-path="url(#a)" fill="#fff" fill-opacity=".1"><path d="M146.652 152.492c0 1.549.501 3.057 1.462 4.355.125.251.292.503.543.712.208.251.459.419.71.544 2.798 2.052 6.765 2.01 9.354-.544 1.337-1.34 2.047-3.183 2.089-5.109-.042-1.885-.752-3.769-2.089-5.109-2.547-2.555-6.556-2.596-9.354-.544a2.135 2.135 0 0 0-.71.544 2.148 2.148 0 0 0-.543.712c-.961 1.34-1.462 2.889-1.462 4.439Zm10.566-25.587c-1.086 1.089-1.796 2.554-2.046 4.104a3.254 3.254 0 0 0-.126.921c0 .335.042.628.126.88.543 3.434 3.382 6.239 6.974 6.239 1.879 0 3.717-.795 5.053-2.094 1.295-1.382 2.088-3.224 2.088-5.067 0-3.643-2.798-6.449-6.222-6.993a2.764 2.764 0 0 0-.877-.126 3.24 3.24 0 0 0-.919.126 7.056 7.056 0 0 0-4.051 2.01Zm25.517-10.595c-1.545 0-3.049.503-4.344 1.466-.25.125-.501.293-.71.544-.25.21-.417.461-.542.712-2.047 2.806-2.005 6.784.542 9.381 1.337 1.34 3.174 2.051 5.095 2.093 1.88-.042 3.759-.753 5.095-2.093 2.548-2.555 2.59-6.575.543-9.381a2.158 2.158 0 0 0-.543-.712 2.141 2.141 0 0 0-.709-.544c-1.379-.963-2.924-1.466-4.427-1.466Zm25.516 10.595c-1.085-1.089-2.547-1.801-4.092-2.052a3.043 3.043 0 0 0-.919-.126c-.334 0-.626.042-.877.126-3.425.544-6.223 3.392-6.223 6.993 0 1.885.794 3.727 2.089 5.068 1.378 1.298 3.215 2.093 5.053 2.093 3.633 0 6.431-2.805 6.974-6.239.084-.252.125-.545.125-.88 0-.335-.041-.628-.125-.921-.209-1.549-.961-2.973-2.005-4.062Zm10.566 25.587c0-1.55-.501-3.057-1.461-4.355a2.165 2.165 0 0 0-.543-.712 2.158 2.158 0 0 0-.71-.545c-2.798-2.052-6.766-2.01-9.355.545-1.336 1.34-2.046 3.182-2.088 5.109.042 1.884.793 3.769 2.088 5.109 2.548 2.554 6.557 2.596 9.355.544.25-.126.501-.293.71-.544.25-.21.417-.461.543-.712a8.147 8.147 0 0 0 1.461-4.439Zm-10.566 25.587c1.086-1.089 1.796-2.555 2.047-4.104.083-.252.125-.587.125-.922 0-.335-.042-.628-.125-.879-.543-3.434-3.383-6.24-6.975-6.24-1.879 0-3.716.796-5.053 2.094-1.294 1.382-2.088 3.225-2.088 5.067 0 3.644 2.798 6.449 6.223 6.994.25.083.543.125.877.125.334 0 .626-.042.919-.125 1.503-.21 2.965-.963 4.05-2.01Zm-25.516 10.595c1.545 0 3.048-.503 4.343-1.466.251-.126.501-.293.71-.545.251-.209.418-.46.543-.711 2.046-2.806 2.004-6.785-.543-9.381-1.336-1.34-3.174-2.052-5.095-2.094-1.879.042-3.759.796-5.095 2.094-2.548 2.555-2.589 6.575-.543 9.381.125.251.292.502.543.711.209.252.459.419.71.545 1.336.963 2.882 1.424 4.427 1.466Zm-25.517-10.595c1.086 1.088 2.547 1.8 4.093 2.052.292.083.584.125.918.125.335 0 .627-.042.877-.125 3.425-.545 6.223-3.392 6.223-6.994 0-1.884-.793-3.727-2.088-5.067-1.378-1.298-3.216-2.094-5.053-2.094-3.634 0-6.432 2.806-6.975 6.24a2.803 2.803 0 0 0-.125.879c0 .335.042.628.125.922a7.223 7.223 0 0 0 2.005 4.062Zm-1.879-25.587c0 .335-.126.712-.376 1.047-.585.795-1.796.795-2.464.125a1.823 1.823 0 0 1-.46-1.214c0-.419.167-.88.46-1.215.668-.628 1.879-.628 2.464.126.292.419.376.754.376 1.131Zm8.018-19.431c-.251.251-.585.419-1.002.502-.961.126-1.796-.712-1.838-1.633 0-.46.209-.879.543-1.172a1.91 1.91 0 0 1 1.169-.545c.919.042 1.754.88 1.629 1.843-.042.419-.25.754-.501 1.005Zm19.378-8.041c-.334 0-.71-.125-1.044-.376-.794-.587-.794-1.801-.126-2.471a1.818 1.818 0 0 1 1.211-.461c.418 0 .877.168 1.212.461.626.67.626 1.884-.126 2.471-.417.293-.793.376-1.127.376Zm19.336 8.041c-.251-.251-.418-.586-.502-1.005-.125-.963.71-1.801 1.629-1.843.46 0 .877.21 1.17.545.292.293.501.712.542 1.172-.041.921-.877 1.759-1.837 1.633-.418-.041-.752-.251-1.002-.502Zm8.018 19.431c0-.335.125-.712.376-1.047.585-.796 1.796-.796 2.464-.126.292.335.459.754.459 1.215 0 .418-.167.879-.459 1.214-.668.628-1.879.628-2.464-.126-.251-.418-.376-.795-.376-1.13Zm-8.018 19.389c.25-.251.584-.419 1.002-.503.96-.125 1.796.712 1.837 1.634 0 .46-.208.879-.542 1.172-.293.293-.71.503-1.17.544-.919-.041-1.754-.879-1.629-1.842.084-.419.251-.754.502-1.005Zm-19.336 8.04c.334 0 .71.126 1.044.377.793.586.793 1.801.125 2.471-.334.293-.752.46-1.211.46-.418 0-.877-.167-1.211-.46-.627-.67-.627-1.885.125-2.471.418-.251.752-.377 1.128-.377Zm-19.378-8.04c.251.251.418.586.501 1.005.125.963-.71 1.801-1.629 1.842-.459 0-.877-.209-1.169-.544a1.927 1.927 0 0 1-.543-1.172c.042-.922.877-1.759 1.838-1.634.417.084.751.252 1.002.503Z"/><path d="M134.625 152.492c.585 1.675 1.295 3.266 1.963 4.732 1.837 4.104 4.134 7.999 6.682 11.684.793 4.439 1.963 8.794 3.55 12.982a60.384 60.384 0 0 0 1.962 4.732c1.587.754 3.216 1.382 4.72 1.968 4.218 1.591 8.561 2.722 12.946 3.56 3.675 2.554 7.559 4.815 11.652 6.7 1.461.67 3.048 1.34 4.719 1.968 1.67-.586 3.257-1.298 4.719-1.968 4.092-1.885 7.976-4.146 11.651-6.7 4.427-.796 8.771-1.969 12.947-3.56a59.94 59.94 0 0 0 4.719-1.968c.752-1.592 1.378-3.225 1.963-4.732 1.587-4.23 2.714-8.585 3.55-12.982 2.547-3.685 4.802-7.58 6.681-11.684a72.998 72.998 0 0 0 1.963-4.732c-.584-1.675-1.294-3.266-1.963-4.732-1.837-4.104-4.134-7.999-6.681-11.684-.794-4.439-1.963-8.794-3.55-12.982a60.567 60.567 0 0 0-1.963-4.732c-1.587-.753-3.216-1.382-4.719-1.968-4.218-1.591-8.561-2.722-12.947-3.559-3.675-2.555-7.559-4.816-11.651-6.701a73.308 73.308 0 0 0-4.719-1.968c-1.671.586-3.258 1.298-4.719 1.968-4.093 1.843-7.977 4.146-11.652 6.701-4.427.795-8.77 1.968-12.946 3.559a60.18 60.18 0 0 0-4.72 1.968c-.751 1.592-1.378 3.225-1.962 4.732-1.587 4.23-2.715 8.585-3.55 12.982-2.548 3.685-4.803 7.58-6.682 11.684a44.756 44.756 0 0 0-1.963 4.732Zm13.823 14.238a81.045 81.045 0 0 1-5.638-9.296c-.668-1.299-1.545-3.016-2.338-4.942a84.027 84.027 0 0 1 2.338-4.941c1.671-3.267 3.55-6.324 5.638-9.297.627-3.56 1.462-7.119 2.59-10.595.459-1.382 1.044-3.225 1.837-5.151 1.963-.796 3.759-1.382 5.137-1.842 3.466-1.131 6.974-1.969 10.566-2.597a80.562 80.562 0 0 1 9.271-5.653c1.295-.67 3.007-1.55 4.928-2.345a83.383 83.383 0 0 1 4.928 2.345c3.257 1.675 6.306 3.559 9.271 5.653 3.55.628 7.1 1.466 10.566 2.597 1.378.46 3.216 1.046 5.137 1.842.793 1.968 1.378 3.769 1.837 5.151 1.128 3.476 1.963 6.993 2.589 10.595a80.689 80.689 0 0 1 5.638 9.297c.669 1.298 1.546 3.015 2.339 4.941a83.693 83.693 0 0 1-2.339 4.942c-1.67 3.266-3.549 6.323-5.638 9.296-.626 3.56-1.461 7.119-2.589 10.595-.459 1.382-1.044 3.225-1.837 5.151-1.963.796-3.759 1.382-5.137 1.843-3.466 1.13-6.974 1.968-10.566 2.596a80.562 80.562 0 0 1-9.271 5.653c-1.295.67-3.007 1.55-4.928 2.345a83.383 83.383 0 0 1-4.928-2.345c-3.258-1.675-6.306-3.559-9.271-5.653-3.55-.628-7.1-1.466-10.566-2.596-1.378-.461-3.216-1.047-5.137-1.843-.793-1.968-1.378-3.769-1.837-5.151-1.17-3.476-2.005-7.035-2.59-10.595Zm26.269-14.238c.919.712 1.796 1.466 2.673 2.22a94.883 94.883 0 0 1-.335 3.433c1.128-.125 2.297-.209 3.425-.293.752.88 1.503 1.759 2.213 2.68.71-.921 1.462-1.8 2.214-2.68 1.127.084 2.297.21 3.424.293-.125-1.13-.209-2.303-.292-3.433.877-.754 1.754-1.508 2.673-2.22-.919-.712-1.796-1.466-2.673-2.219.083-1.131.209-2.304.292-3.434-1.127.125-2.297.209-3.424.335-.752-.88-1.504-1.759-2.214-2.68-.71.921-1.461 1.8-2.213 2.68a96.75 96.75 0 0 1-3.425-.335c.126 1.13.209 2.303.335 3.434-.877.753-1.754 1.465-2.673 2.219Z"/><path d="M.735 152.492c.668 11.39 1.712 22.739 2.965 34.088 1.42 12.73 3.174 25.503 4.803 38.317 7.893 10.218 15.619 20.478 23.595 30.487 7.1 8.92 14.408 17.672 21.925 26.173 8.52 7.58 17.248 14.866 26.102 21.985 9.981 7.999 20.213 15.788 30.403 23.661 12.779 1.633 25.517 3.392 38.171 4.816a711.521 711.521 0 0 0 33.994 2.973 617.054 617.054 0 0 0 33.995-2.973c12.695-1.424 25.433-3.183 38.212-4.816 10.19-7.915 20.422-15.662 30.403-23.661 8.895-7.119 17.624-14.447 26.101-21.985 7.559-8.543 14.826-17.295 21.926-26.173 7.976-10.009 15.744-20.269 23.595-30.487 1.629-12.814 3.383-25.587 4.803-38.317a716.821 716.821 0 0 0 2.965-34.088 621.275 621.275 0 0 0-2.965-34.088c-1.42-12.731-3.174-25.503-4.803-38.317-7.893-10.218-15.619-20.478-23.595-30.487-7.1-8.92-14.408-17.672-21.926-26.173-8.519-7.58-17.247-14.866-26.101-21.985-9.981-7.999-20.213-15.788-30.403-23.66-12.779-1.634-25.517-3.393-38.212-4.817-11.276-1.256-22.594-2.303-33.953-2.973-11.359.67-22.677 1.717-33.995 2.973-12.695 1.424-25.433 3.183-38.17 4.816-10.19 7.915-20.422 15.662-30.403 23.66-8.896 7.12-17.624 14.448-26.102 21.986C46.506 31.97 39.24 40.722 32.14 49.6 24.163 59.61 16.396 69.87 8.544 80.087 6.916 92.9 5.162 105.673 3.742 118.404c-1.295 11.349-2.339 22.697-3.007 34.088Zm135.811 19.18c-4.343-6.031-8.019-12.48-10.107-19.18 2.13-6.7 5.805-13.149 10.107-19.18 1.169-7.328 3.174-14.489 6.389-20.729 6.223-3.224 13.364-5.193 20.673-6.407 6.014-4.355 12.445-8.04 19.127-10.134 6.682 2.135 13.113 5.821 19.127 10.134 7.308 1.173 14.45 3.183 20.672 6.407 3.216 6.24 5.179 13.401 6.39 20.729 4.343 6.031 8.018 12.48 10.106 19.18-2.129 6.7-5.805 13.149-10.106 19.18-1.169 7.328-3.174 14.489-6.39 20.729-6.222 3.224-13.364 5.192-20.672 6.407-6.014 4.355-12.445 8.04-19.127 10.134-6.682-2.136-13.113-5.821-19.127-10.134-7.309-1.173-14.45-3.183-20.673-6.407-3.215-6.24-5.22-13.401-6.389-20.729Zm-116.6 48.451c-.293-2.805-.627-5.569-.961-8.375 3.675-7.58 16.496-7.915 23.554-9.339 7.935-1.591 15.786-3.475 23.512-5.946 13.99-4.439 27.313-10.637 39.173-19.347 1.295 2.01 2.589 3.978 3.967 5.904.418 2.345.877 4.649 1.379 6.994-14.534 2.261-28.315 7.286-41.345 14.112-7.183 3.727-14.074 7.999-20.798 12.48-5.972 4.02-15.285 12.856-23.22 10.092a597.344 597.344 0 0 1-5.262-6.575Zm0-135.262a719.367 719.367 0 0 0 5.22-6.575c7.935-2.764 17.248 6.114 23.22 10.092 6.723 4.481 13.656 8.752 20.797 12.48 13.03 6.784 26.812 11.851 41.345 14.112a186.71 186.71 0 0 0-1.378 6.994 206.429 206.429 0 0 0-3.968 5.904c-11.86-8.71-25.182-14.908-39.173-19.347-7.726-2.429-15.577-4.355-23.512-5.946-7.058-1.424-19.879-1.759-23.554-9.297.376-2.806.668-5.612 1.002-8.417Zm95.343-95.606c2.798-.293 5.554-.628 8.352-.963 7.559 3.685 7.893 16.542 9.271 23.619 1.587 7.957 3.467 15.83 5.931 23.577 4.427 14.028 10.607 27.387 19.294 39.28-2.005 1.298-3.968 2.597-5.889 3.978-2.338.42-4.635.88-6.974 1.383-2.255-14.574-7.267-28.393-14.074-41.459-3.717-7.203-7.976-14.112-12.445-20.855-4.009-5.988-12.821-15.327-10.065-23.283 2.214-1.8 4.427-3.56 6.599-5.277Zm134.892 0a717.454 717.454 0 0 0 6.557 5.235c2.756 7.957-6.098 17.295-10.065 23.284-4.469 6.742-8.728 13.693-12.445 20.854-6.766 13.066-11.819 26.885-14.074 41.459a186.87 186.87 0 0 0-6.974-1.382c-1.922-1.382-3.884-2.68-5.889-3.979 8.687-11.893 14.867-25.252 19.294-39.28 2.422-7.747 4.344-15.62 5.93-23.577 1.42-7.077 1.755-19.933 9.313-23.619 2.757.377 5.555.67 8.353 1.005Zm95.343 95.606c.293 2.805.627 5.57.961 8.375-3.675 7.58-16.496 7.915-23.554 9.297-7.935 1.591-15.786 3.475-23.512 5.946-13.991 4.439-27.313 10.637-39.173 19.347-1.295-2.01-2.59-3.978-3.968-5.904a205.538 205.538 0 0 0-1.378-6.994c14.533-2.261 28.315-7.286 41.345-14.112 7.183-3.727 14.074-7.999 20.797-12.48 5.972-4.02 15.285-12.856 23.22-10.092 1.754 2.22 3.508 4.439 5.262 6.617Zm0 135.262a714.208 714.208 0 0 0-5.22 6.575c-7.935 2.764-17.248-6.114-23.22-10.092-6.724-4.481-13.614-8.753-20.798-12.48-13.029-6.784-26.811-11.851-41.344-14.112.501-2.303.96-4.649 1.378-6.994 1.378-1.926 2.673-3.894 3.967-5.904 11.861 8.71 25.183 14.908 39.173 19.347 7.726 2.429 15.578 4.355 23.513 5.946 7.057 1.424 19.878 1.759 23.554 9.339-.376 2.764-.71 5.57-1.003 8.375Zm-95.343 95.606c-2.798.293-5.554.628-8.353.963-7.558-3.685-7.893-16.542-9.313-23.619-1.586-7.957-3.466-15.829-5.93-23.577-4.427-14.029-10.607-27.387-19.294-39.28 2.005-1.299 3.967-2.597 5.889-3.979 2.338-.418 4.635-.879 6.974-1.382 2.255 14.574 7.267 28.393 14.074 41.459 3.717 7.203 7.976 14.112 12.445 20.854 4.009 5.989 12.821 15.327 10.065 23.284-2.214 1.759-4.385 3.518-6.557 5.277Zm-134.892 0a714.957 714.957 0 0 0-6.557-5.235c-2.756-7.957 6.097-17.295 10.065-23.284 4.468-6.742 8.728-13.652 12.445-20.855 6.765-13.065 11.819-26.885 14.074-41.458 2.297.503 4.635.963 6.974 1.382 1.921 1.382 3.884 2.68 5.889 3.979-8.687 11.893-14.868 25.251-19.295 39.28-2.422 7.747-4.343 15.62-5.93 23.577-1.42 7.077-1.754 19.933-9.271 23.619a285.65 285.65 0 0 0-8.394-1.005ZM92.153 152.492a173.112 173.112 0 0 0 4.552 9.799c-1.587 7.329-6.432 12.773-12.738 16.918-2.923-8.794-5.68-17.714-8.018-26.759 2.338-9.045 5.095-17.965 8.018-26.717 6.306 4.145 11.15 9.631 12.738 16.918-1.63 3.224-3.133 6.533-4.552 9.841Zm26.519-64.24a173.176 173.176 0 0 0-3.717 10.177c-6.265 4.062-13.531 4.481-20.923 2.973 4.134-8.292 8.478-16.541 13.197-24.582 8.018-4.732 16.245-9.087 24.514-13.233 1.504 7.412 1.086 14.699-2.965 20.98a182.737 182.737 0 0 0-10.106 3.686Zm64.063-26.591a172.523 172.523 0 0 0-9.773 4.564c-7.308-1.591-12.737-6.449-16.871-12.772 8.77-2.932 17.665-5.696 26.644-8.04 9.021 2.345 17.916 5.108 26.644 8.04-4.134 6.323-9.605 11.181-16.872 12.772a172.17 172.17 0 0 0-9.772-4.564Zm64.021 26.592c-3.341-1.34-6.723-2.597-10.148-3.686-4.051-6.281-4.468-13.568-2.965-20.98 8.269 4.146 16.496 8.501 24.515 13.233 4.719 8.04 9.062 16.29 13.196 24.582-7.392 1.508-14.658 1.089-20.922-2.973a128.415 128.415 0 0 0-3.676-10.176Zm26.561 64.239a173.041 173.041 0 0 0-4.552-9.799c1.587-7.329 6.432-12.773 12.738-16.919 2.923 8.795 5.679 17.714 8.018 26.718-2.339 9.045-5.095 17.965-8.018 26.759-6.306-4.145-11.151-9.631-12.738-16.918 1.587-3.266 3.132-6.533 4.552-9.841Zm-26.561 64.197c1.337-3.35 2.59-6.742 3.676-10.176 6.264-4.062 13.53-4.481 20.922-2.973-4.134 8.292-8.477 16.541-13.196 24.582-8.019 4.732-16.246 9.087-24.515 13.233-1.503-7.412-1.086-14.699 2.965-20.98a122.221 122.221 0 0 0 10.148-3.686Zm-64.021 26.634a172.44 172.44 0 0 0 9.772-4.564c7.309 1.591 12.738 6.449 16.872 12.772-8.77 2.931-17.665 5.695-26.644 8.04-9.021-2.345-17.916-5.109-26.644-8.04 4.134-6.323 9.605-11.181 16.871-12.772a189.947 189.947 0 0 0 9.773 4.564Zm-64.063-26.634c3.341 1.34 6.723 2.597 10.148 3.686 4.051 6.281 4.468 13.568 2.965 20.98-8.269-4.146-16.496-8.501-24.515-13.233-4.719-8.041-9.062-16.29-13.197-24.582 7.392-1.508 14.659-1.089 20.923 2.973a163.055 163.055 0 0 0 3.676 10.176Zm-48.32-64.197c2.548 10.009 5.597 19.892 8.854 29.565-5.638 2.931-11.986 5.067-18.041 6.742-3.842-11.851-7.058-23.995-9.23-36.307 2.214-12.312 5.388-24.456 9.23-36.307 6.055 1.675 12.403 3.81 18.041 6.742-3.299 9.673-6.348 19.556-8.853 29.565ZM103.262 72.8c-5.262 8.878-10.064 18.007-14.575 27.178-6.055-1.926-12.027-4.9-17.54-8.04C76.784 80.84 83.09 69.952 90.19 59.693c10.231-7.161 21.048-13.485 32.157-19.096 3.09 5.486 6.055 11.516 8.018 17.588-9.146 4.523-18.25 9.338-27.104 14.615Zm79.474-33c-9.981 2.555-19.837 5.612-29.484 8.879-2.924-5.654-5.054-12.019-6.724-18.091 11.819-3.853 23.93-7.077 36.208-9.255 12.278 2.22 24.389 5.402 36.208 9.255-1.671 6.072-3.801 12.438-6.724 18.09-9.689-3.307-19.503-6.364-29.484-8.877Zm79.473 33c-8.853-5.276-17.957-10.092-27.103-14.615 1.921-6.072 4.886-12.06 8.018-17.588 11.067 5.653 21.925 11.976 32.157 19.096 7.141 10.26 13.448 21.106 19.044 32.245-5.471 3.099-11.485 6.072-17.54 8.04-4.511-9.17-9.313-18.3-14.576-27.178Zm32.909 79.692c-2.547-10.009-5.596-19.892-8.853-29.565 5.637-2.932 11.985-5.067 18.041-6.742 3.842 11.851 7.058 23.995 9.229 36.307-2.213 12.312-5.387 24.456-9.229 36.307-6.056-1.675-12.404-3.811-18.041-6.742 3.257-9.715 6.347-19.556 8.853-29.565Zm-32.909 79.692c5.263-8.878 10.065-18.007 14.576-27.178 6.055 1.926 12.027 4.899 17.54 8.04-5.638 11.098-11.944 21.986-19.044 32.245-10.232 7.161-21.048 13.485-32.157 19.096-3.09-5.486-6.055-11.516-8.018-17.588 9.146-4.523 18.25-9.339 27.103-14.615Zm-79.473 32.999c9.981-2.555 19.837-5.612 29.484-8.878 2.923 5.653 5.053 12.019 6.724 18.091-11.819 3.853-23.93 7.077-36.208 9.255-12.278-2.22-24.389-5.402-36.208-9.255 1.67-6.072 3.8-12.438 6.724-18.091 9.647 3.266 19.503 6.365 29.484 8.878Zm-79.474-32.999c8.854 5.276 17.958 10.092 27.104 14.615-1.921 6.072-4.886 12.061-8.018 17.588-11.067-5.653-21.926-11.977-32.157-19.096-7.142-10.259-13.448-21.106-19.044-32.245 5.47-3.099 11.485-6.072 17.54-8.04 4.51 9.171 9.313 18.3 14.575 27.178Zm-56.88-79.692c2.213 12.772 5.47 25.377 9.48 37.689-2.59.628-5.095 1.215-7.35 1.717-2.631.586-5.43 1.089-8.31 1.675-4.302-13.442-7.476-27.178-9.272-41.081 1.796-13.903 4.97-27.639 9.271-41.081 2.882.544 5.722 1.047 8.31 1.675 2.298.502 4.762 1.088 7.351 1.717-4.05 12.311-7.308 24.916-9.48 37.689Zm39.925-96.694c-7.434 10.595-14.032 21.818-19.88 33.376-2.296-1.382-4.426-2.764-6.43-3.978-2.256-1.424-4.636-3.057-7.058-4.733 6.431-12.563 13.865-24.54 22.426-35.637 11.067-8.543 23.011-16.039 35.54-22.488 1.628 2.43 3.299 4.816 4.719 7.077a276.219 276.219 0 0 1 3.967 6.45c-11.526 5.862-22.718 12.479-33.284 19.933Zm96.429-40.035c-12.738 2.22-25.308 5.486-37.586 9.507a406.11 406.11 0 0 1-1.712-7.37c-.585-2.639-1.086-5.445-1.671-8.334C155.172 5.252 168.87 2.07 182.735.269c13.865 1.8 27.563 4.983 40.969 9.297-.543 2.89-1.044 5.737-1.671 8.333a343.9 343.9 0 0 1-1.712 7.37c-12.278-4.061-24.89-7.328-37.586-9.505Zm96.429 40.035c-10.566-7.454-21.758-14.07-33.285-19.934 1.379-2.303 2.757-4.438 3.968-6.449 1.42-2.26 3.048-4.648 4.719-7.077 12.529 6.45 24.473 13.903 35.54 22.488 8.519 11.098 15.995 23.074 22.426 35.637-2.422 1.634-4.803 3.309-7.058 4.733a276.338 276.338 0 0 1-6.431 3.978c-5.889-11.558-12.445-22.781-19.879-33.376Zm39.925 96.694c-2.214-12.773-5.471-25.378-9.48-37.689a397.702 397.702 0 0 1 7.35-1.717c2.631-.587 5.429-1.089 8.311-1.675 4.301 13.442 7.475 27.178 9.271 41.081-1.796 13.903-4.97 27.639-9.271 41.081-2.882-.544-5.722-1.047-8.311-1.675a337.155 337.155 0 0 1-7.35-1.717c4.009-12.312 7.266-24.958 9.48-37.689Zm-39.925 96.694c7.434-10.595 14.032-21.818 19.879-33.376 2.297 1.382 4.427 2.764 6.431 3.978 2.255 1.424 4.636 3.057 7.058 4.732-6.431 12.563-13.865 24.54-22.426 35.638-11.067 8.543-23.011 16.039-35.54 22.488-1.629-2.429-3.299-4.816-4.719-7.078a277.607 277.607 0 0 1-3.968-6.449c11.527-5.904 22.719-12.479 33.285-19.933Zm-96.429 40.034c12.737-2.219 25.308-5.486 37.586-9.506a414.724 414.724 0 0 1 1.712 7.371c.585 2.638 1.086 5.444 1.671 8.333-13.406 4.314-27.104 7.496-40.969 9.297-13.865-1.801-27.563-4.983-40.969-9.297.543-2.889 1.044-5.737 1.671-8.333a337.846 337.846 0 0 1 1.712-7.371c12.278 4.02 24.848 7.287 37.586 9.506Zm-96.43-40.034c10.567 7.454 21.759 14.071 33.285 19.933-1.378 2.304-2.756 4.439-3.967 6.449-1.42 2.262-3.049 4.649-4.719 7.078-12.529-6.449-24.473-13.903-35.54-22.488-8.52-11.098-15.995-23.075-22.426-35.638 2.422-1.633 4.802-3.308 7.057-4.732a277.81 277.81 0 0 1 6.432-3.978c5.847 11.558 12.445 22.781 19.879 33.376Zm-60.93-96.694c1.795 14.28 5.011 28.434 9.396 42.212-6.431 1.466-12.612 3.601-16.83 7.789-.209-1.884-.418-3.811-.627-5.695-1.628-14.741-2.881-29.482-3.633-44.306.71-14.825 2.005-29.565 3.592-44.306.209-1.884.417-3.811.626-5.695 4.218 4.187 10.399 6.323 16.83 7.789-4.343 13.777-7.6 27.932-9.354 42.212ZM71.438 40.89c-8.811 11.348-16.496 23.66-23.094 36.516C42.748 73.89 36.9 71 30.929 71a186.89 186.89 0 0 1 3.591-4.48c9.23-11.559 18.752-22.907 28.691-33.88 10.942-9.966 22.26-19.472 33.786-28.769C98.5 2.656 99.962 1.483 101.465.27c0 5.947 2.882 11.851 6.39 17.463-12.82 6.616-25.057 14.322-36.417 23.158ZM182.735-5.3c-14.241 1.8-28.357 5.025-42.097 9.422-1.461-6.45-3.591-12.647-7.767-16.877 1.879-.21 3.8-.418 5.679-.628 14.701-1.633 29.401-2.89 44.185-3.643 14.742.712 29.484 2.01 44.184 3.643 1.88.21 3.801.419 5.68.628-4.176 4.23-6.306 10.428-7.768 16.877-13.74-4.397-27.855-7.664-42.096-9.423ZM293.99 40.89c-11.318-8.836-23.596-16.542-36.417-23.158 3.508-5.612 6.389-11.475 6.389-17.463a186.266 186.266 0 0 1 4.469 3.601c11.526 9.255 22.844 18.803 33.786 28.77 9.939 10.972 19.419 22.32 28.69 33.878 1.211 1.508 2.381 2.974 3.592 4.481-5.93 0-11.819 2.89-17.415 6.407-6.598-12.856-14.283-25.126-23.094-36.516Zm46.105 111.602c-1.796-14.28-5.011-28.435-9.396-42.212 6.431-1.466 12.612-3.602 16.83-7.789.209 1.884.417 3.811.626 5.695 1.629 14.741 2.882 29.481 3.634 44.306-.71 14.783-2.005 29.565-3.634 44.306-.209 1.884-.417 3.811-.626 5.695-4.218-4.188-10.399-6.323-16.83-7.789 4.385-13.778 7.6-27.932 9.396-42.212Zm-46.105 111.56c8.811-11.348 16.496-23.66 23.094-36.516 5.596 3.517 11.443 6.407 17.415 6.407-1.211 1.507-2.381 3.015-3.592 4.481-9.229 11.558-18.751 22.906-28.69 33.878-10.942 9.967-22.26 19.473-33.786 28.77-1.503 1.214-2.965 2.387-4.469 3.601 0-5.947-2.881-11.851-6.389-17.463 12.821-6.616 25.099-14.322 36.417-23.158Zm-111.255 46.233c14.241-1.801 28.356-5.026 42.096-9.423 1.462 6.449 3.592 12.647 7.768 16.877-1.879.209-3.8.418-5.68.628-14.7 1.633-29.4 2.889-44.184 3.643-14.742-.712-29.484-2.01-44.185-3.643-1.879-.21-3.8-.419-5.679-.628 4.176-4.23 6.306-10.428 7.767-16.877 13.74 4.397 27.856 7.622 42.097 9.423ZM71.438 264.052c11.318 8.836 23.596 16.542 36.417 23.158-3.508 5.612-6.39 11.475-6.39 17.463-1.503-1.214-3.006-2.387-4.468-3.601-11.526-9.255-22.844-18.803-33.786-28.77-9.94-10.972-19.42-22.32-28.69-33.878-1.212-1.508-2.38-2.974-3.592-4.481 5.93 0 11.819-2.89 17.415-6.407 6.598 12.856 14.283 25.168 23.094 36.516Zm46.106-111.56c2.005 7.789 6.223 15.411 11.234 22.404 1.42 8.501 3.842 16.877 7.893 23.786 6.933 4.062 15.243 6.491 23.721 7.915 7.016 5.025 14.617 9.213 22.343 11.265 7.768-2.01 15.368-6.24 22.343-11.265 8.477-1.424 16.83-3.853 23.721-7.915 4.051-6.951 6.473-15.285 7.893-23.786 5.011-7.035 9.187-14.657 11.234-22.404-2.005-7.789-6.223-15.411-11.234-22.404-1.42-8.501-3.842-16.877-7.893-23.786-6.933-4.062-15.244-6.491-23.721-7.915-7.016-5.025-14.617-9.213-22.343-11.265-7.768 2.01-15.369 6.24-22.343 11.265-8.478 1.424-16.83 3.853-23.721 7.915-4.051 6.951-6.473 15.285-7.893 23.786-5.053 6.993-9.229 14.615-11.234 22.404Zm1.754 26.341c-6.014-8.334-11.276-17.128-15.577-26.341 4.301-9.213 9.563-18.007 15.577-26.341 1.629-10.176 4.093-20.101 7.559-29.69 9.564-3.476 19.461-5.947 29.609-7.58 8.311-6.03 17.081-11.307 26.269-15.62 9.188 4.313 17.958 9.59 26.268 15.62 10.149 1.633 20.046 4.104 29.61 7.58 3.466 9.589 5.93 19.514 7.559 29.69 6.014 8.334 11.276 17.128 15.577 26.341-4.301 9.213-9.563 18.007-15.577 26.341-1.629 10.176-4.093 20.101-7.559 29.69-9.564 3.476-19.461 5.947-29.61 7.58-8.31 6.03-17.08 11.307-26.268 15.62-9.188-4.313-17.958-9.59-26.269-15.62-10.148-1.633-20.045-4.104-29.609-7.58-3.466-9.589-5.972-19.514-7.559-29.69Z"/></g><defs><clipPath id="a"><path fill="#fff" transform="translate(.735 -30.008)" d="M0 0h364v365H0z"/></clipPath></defs></svg>